<svg xmlns="http://www.w3.org/2000/svg" viewBox="0 0 1000 640" role="img" aria-labelledby="title desc">
  <title id="title">Thymio ANN structure</title>
  <desc id="desc">
    Five sensors each connect to one left-wheel weight and one right-wheel weight.
    The five left weights and bias L converge on the left neuron; the five right
    weights and bias R converge on the right neuron; each neuron drives one wheel.
  </desc>

  <style>
    .box { fill: #f7fafc; stroke: #1c2430; stroke-width: 2; }
    .sensor { fill: #e8f6ea; }
    .weight { fill: #fff4e8; }
    .bias { fill: #eef4ff; }
    .neuron { fill: #d8eef3; }
    .motor { fill: #fdecec; }
    .line { fill: none; stroke: #8b93a0; stroke-width: 1.5; }
    .line-L { fill: none; stroke: #3a5ea8; stroke-width: 1.7; }
    .line-R { fill: none; stroke: #c85a1e; stroke-width: 1.7; }
    .label { font-family: Arial, Helvetica, sans-serif; fill: #1c2430; }
    .title { font-size: 15px; font-weight: 700; }
    .small { font-size: 13px; font-weight: 700; }
    .tiny { font-size: 12px; font-weight: 600; fill: #5c6570; }
    .sym { font-family: Arial, Helvetica, sans-serif; font-size: 18px; font-weight: 700; text-anchor: middle; dominant-baseline: central; }
  </style>

  <rect x="210" y="48" width="770" height="270" rx="16" fill="#eef4fb"/>
  <rect x="210" y="334" width="770" height="270" rx="16" fill="#fbf1e8"/>
  <text class="label tiny" x="226" y="70">LEFT wheel path</text>
  <text class="label tiny" x="226" y="356">RIGHT wheel path</text>

  <text class="label title" x="48" y="30">5 sensors</text>
  <text class="label title" x="280" y="30">synaptic weights (x)</text>
  <text class="label title" x="500" y="30">bias</text>
  <text class="label title" x="640" y="30">neuron (+)</text>
  <text class="label title" x="800" y="30">wheel</text>

  <!-- Sensors: centers Sy = 102, 202, 302, 422, 542 -->
  <g id="sensors">
    <rect class="box sensor" x="32" y="80" width="150" height="44" rx="10"/>
    <rect class="box sensor" x="32" y="180" width="150" height="44" rx="10"/>
    <rect class="box sensor" x="32" y="280" width="150" height="44" rx="10"/>
    <rect class="box sensor" x="32" y="400" width="150" height="44" rx="10"/>
    <rect class="box sensor" x="32" y="520" width="150" height="44" rx="10"/>
    <text class="label small" x="48" y="107">right</text>
    <text class="label small" x="48" y="207">right-centre</text>
    <text class="label small" x="48" y="307">centre</text>
    <text class="label small" x="48" y="427">left-centre</text>
    <text class="label small" x="48" y="547">left</text>
  </g>

  <!-- LEFT weights: centers 120, 160, 200, 240, 280 — index-aligned with sensors -->
  <text class="label small" x="268" y="92" fill="#3a5ea8">5 weights to LEFT</text>
  <g id="wL">
    <rect class="box weight" x="290" y="104" width="58" height="32" rx="8"/>
    <rect class="box weight" x="290" y="144" width="58" height="32" rx="8"/>
    <rect class="box weight" x="290" y="184" width="58" height="32" rx="8"/>
    <rect class="box weight" x="290" y="224" width="58" height="32" rx="8"/>
    <rect class="box weight" x="290" y="264" width="58" height="32" rx="8"/>
    <text class="sym" x="319" y="120" fill="#3a5ea8">x</text>
    <text class="sym" x="319" y="160" fill="#3a5ea8">x</text>
    <text class="sym" x="319" y="200" fill="#3a5ea8">x</text>
    <text class="sym" x="319" y="240" fill="#3a5ea8">x</text>
    <text class="sym" x="319" y="280" fill="#3a5ea8">x</text>
  </g>

  <!-- Bias L on the side -->
  <rect class="box bias" x="480" y="100" width="86" height="40" rx="10"/>
  <text class="label small" x="496" y="125">bias L</text>

  <!-- Left neuron + wheel: center 680,200 -->
  <circle class="box neuron" cx="680" cy="200" r="36"/>
  <text class="sym" x="680" y="200">+</text>
  <text class="label tiny" x="680" y="252" text-anchor="middle">left neuron</text>
  <rect class="box motor" x="800" y="176" width="130" height="48" rx="10"/>
  <text class="label small" x="822" y="205">left wheel</text>

  <!-- Sensor i -> left weight i (polyline: out, then into weight) -->
  <path class="line" d="M182,102 H290"/>
  <path class="line" d="M182,202 H220 V160 H290"/>
  <path class="line" d="M182,302 H230 V200 H290"/>
  <path class="line" d="M182,422 H240 V240 H290"/>
  <path class="line" d="M182,542 H250 V280 H290"/>

  <!-- Each left weight -> left neuron (separate rays into the circle) -->
  <path class="line-L" d="M348,120 C420,120 520,150 646,178"/>
  <path class="line-L" d="M348,160 C430,160 540,175 646,190"/>
  <path class="line-L" d="M348,200 H644"/>
  <path class="line-L" d="M348,240 C430,240 540,225 646,210"/>
  <path class="line-L" d="M348,280 C420,280 520,250 646,222"/>
  <!-- Bias L -> left neuron -->
  <path class="line-L" d="M566,120 C620,120 640,160 652,178"/>
  <!-- Neuron -> wheel -->
  <path class="line-L" d="M716,200 H800"/>

  <!-- RIGHT weights: centers 406, 446, 486, 526, 566 -->
  <text class="label small" x="268" y="378" fill="#c85a1e">5 weights to RIGHT</text>
  <g id="wR">
    <rect class="box weight" x="290" y="390" width="58" height="32" rx="8"/>
    <rect class="box weight" x="290" y="430" width="58" height="32" rx="8"/>
    <rect class="box weight" x="290" y="470" width="58" height="32" rx="8"/>
    <rect class="box weight" x="290" y="510" width="58" height="32" rx="8"/>
    <rect class="box weight" x="290" y="550" width="58" height="32" rx="8"/>
    <text class="sym" x="319" y="406" fill="#c85a1e">x</text>
    <text class="sym" x="319" y="446" fill="#c85a1e">x</text>
    <text class="sym" x="319" y="486" fill="#c85a1e">x</text>
    <text class="sym" x="319" y="526" fill="#c85a1e">x</text>
    <text class="sym" x="319" y="566" fill="#c85a1e">x</text>
  </g>

  <rect class="box bias" x="480" y="386" width="86" height="40" rx="10"/>
  <text class="label small" x="496" y="411">bias R</text>

  <circle class="box neuron" cx="680" cy="486" r="36"/>
  <text class="sym" x="680" y="486">+</text>
  <text class="label tiny" x="680" y="538" text-anchor="middle">right neuron</text>
  <rect class="box motor" x="800" y="462" width="130" height="48" rx="10"/>
  <text class="label small" x="818" y="491">right wheel</text>

  <!-- Sensor i -> right weight i -->
  <path class="line" d="M182,102 H250 V406 H290"/>
  <path class="line" d="M182,202 H240 V446 H290"/>
  <path class="line" d="M182,302 H230 V486 H290"/>
  <path class="line" d="M182,422 H220 V526 H290"/>
  <path class="line" d="M182,542 H290"/>

  <!-- Each right weight -> right neuron -->
  <path class="line-R" d="M348,406 C420,406 520,436 646,464"/>
  <path class="line-R" d="M348,446 C430,446 540,461 646,476"/>
  <path class="line-R" d="M348,486 H644"/>
  <path class="line-R" d="M348,526 C430,526 540,511 646,496"/>
  <path class="line-R" d="M348,566 C420,566 520,536 646,508"/>
  <!-- Bias R -> right neuron -->
  <path class="line-R" d="M566,406 C620,406 640,446 652,464"/>
  <path class="line-R" d="M716,486 H800"/>

  <!-- Footer: no activation -->
  <rect x="32" y="612" width="936" height="22" rx="6" fill="#fff" stroke="#1c2430" stroke-width="1.5"/>
  <text class="label small" x="500" y="627" text-anchor="middle">
    wheel = bias + sum(sensor x weight)   |   5 sensors -&gt; 10 weights + 2 biases -&gt; 2 neurons -&gt; 2 wheels
  </text>
</svg>
